<svg width="53" height="39" viewBox="0 0 53 39" fill="none" xmlns="http://www.w3.org/2000/svg">
<g id="mainpart">
<path id="d87ad07d 2640 4933 80f4 8c7bec5a0faa" d="M26.4962 0C11.8664 0.0193259 0.0196344 11.8661 0.000308485 26.4959C-0.0190174 30.4577 0.869977 34.3615 2.58998 37.9368C2.91853 38.6132 3.73021 38.9031 4.40662 38.5746C5.08303 38.246 5.37292 37.4343 5.04438 36.7579C-0.598795 24.9111 4.40662 10.7259 16.2534 5.06339C28.0809 -0.599104 42.2661 4.40631 47.9286 16.2531C50.9628 22.6113 51.0208 29.9745 48.1026 36.3714C47.7933 37.0671 48.0832 37.8788 48.779 38.188C49.4747 38.4973 50.2864 38.2074 50.5956 37.5116C56.6833 24.1961 50.8275 8.46476 37.5119 2.39642C34.0333 0.811689 30.284 0 26.4962 0Z" fill="#333333"/>
</g>
</svg>
