<svg
    version="1.1"
    id="L2"
    xmlns="http://www.w3.org/2000/svg"
    xmlnXlink="http://www.w3.org/1999/xlink"
    x="0px"
    y="0px"
    viewBox="0 -1 50 40"
    enableBackground="new 0 0 50 20"
    xmlSpace="preserve"
>
    <path
    id="d87ad07d 2640 4933 80f4 8c7bec5a0faa"
    d="M30.0073 15.2901C18.8886 15.3048 9.88493 24.3085 9.87024 35.4272C9.85556 38.4382 10.5312 41.4051 11.8384 44.1224C12.0881 44.6365 12.705 44.8568 13.2191 44.6071C13.7332 44.3574 13.9535 43.7405 13.7038 43.2264C9.41492 34.2228 13.2191 23.4419 22.2228 19.1383C31.2117 14.8348 41.9926 18.6389 46.2962 27.6426C48.6022 32.4749 48.6463 38.071 46.4284 42.9327C46.1934 43.4615 46.4137 44.0783 46.9425 44.3133C47.4712 44.5484 48.0881 44.328 48.3231 43.7993C52.9498 33.6793 48.4994 21.7234 38.3794 17.1114C35.7356 15.907 32.8862 15.2901 30.0073 15.2901Z"
    fill="#333333"
    />

    <line
    fill="#333333"
    strokeLinecap="round"
    stroke="#333333"
    strokeWidth="4"
    strokeMiterlimit="10"
    x1="20"
    y1="40"
    x2="30"
    y2="40"
    >
        <animateTransform
            attributeName="transform"
            dur="1s"
            type="rotate"
            from="0 30 40"
            to="170 30 40"
            fill="freeze"
            begin="0.5s"
        />
    </line>
</svg>