<svg width="60" height="60" viewBox="0 0 60 60" fill="none" xmlns="http://www.w3.org/2000/svg">
<g id="speedometer 1">
<g id="mainpart">
<path id="d87ad07d 2640 4933 80f4 8c7bec5a0faa" d="M30.0073 15.2901C18.8886 15.3048 9.88493 24.3085 9.87024 35.4272C9.85556 38.4382 10.5312 41.4051 11.8384 44.1224C12.0881 44.6365 12.705 44.8568 13.2191 44.6071C13.7332 44.3574 13.9535 43.7405 13.7038 43.2264C9.41492 34.2228 13.2191 23.4419 22.2228 19.1383C31.2117 14.8348 41.9926 18.6389 46.2962 27.6426C48.6022 32.4749 48.6463 38.071 46.4284 42.9327C46.1934 43.4615 46.4137 44.0783 46.9425 44.3133C47.4712 44.5484 48.0881 44.328 48.3231 43.7993C52.9498 33.6793 48.4994 21.7234 38.3794 17.1114C35.7356 15.907 32.8862 15.2901 30.0073 15.2901Z" fill="#333333"/>
</g>
<g id="animatedpart">
<path id="animatedpart_2" d="M33.694 35.0012L43.3586 36.6463C43.8727 36.7197 44.2399 37.1603 44.2399 37.6891C44.2252 38.2619 43.7552 38.7173 43.1824 38.7173C43.1236 38.7173 43.0649 38.7173 43.0061 38.7026L33.3415 37.0575C32.798 38.2032 31.6964 38.9963 30.4333 39.1432C28.3917 39.3782 26.541 37.9241 26.2913 35.8825C26.0563 33.8409 27.5104 31.9902 29.552 31.7405C31.5936 31.5055 33.4443 32.9596 33.694 35.0012Z" fill="#333333"/>
</g>
</g>
</svg>
